<svg xmlns="http://www.w3.org/2000/svg" width="500" height="300" font-family="sans-serif" font-size="13">
  <rect width="500" height="300" fill="#111"/>
  <line x1="220" y1="15" x2="220" y2="200" stroke="#666" stroke-width="1.5" stroke-dasharray="6,4"/>
  <polyline points="80,200 80,140 120,140 120,100 160,100 160,60 200,60 200,20" fill="none" stroke="#888" stroke-width="1.2" stroke-dasharray="4,3"/>
  <line x1="55" y1="200" x2="455" y2="200" stroke="white" stroke-width="1.5"/>
  <polygon points="455,196 455,204 465,200" fill="white"/>
  <line x1="60" y1="205" x2="60" y2="15" stroke="white" stroke-width="1.5"/>
  <polygon points="56,15 64,15 60,5" fill="white"/>
  <text x="40" y="22" font-size="14" font-style="italic" fill="white" text-anchor="middle">n</text>
  <text x="470" y="205" font-size="14" font-style="italic" fill="white">m</text>
  <line x1="100" y1="200" x2="100" y2="208" stroke="white" stroke-width="1.5"/>
  <text x="100" y="222" text-anchor="middle" fill="white" font-size="13">1</text>
  <line x1="220" y1="200" x2="220" y2="208" stroke="white" stroke-width="1.5"/>
  <text x="220" y="222" text-anchor="middle" font-style="italic" fill="white" font-size="13">N</text>
  <line x1="420" y1="200" x2="420" y2="208" stroke="white" stroke-width="1.5"/>
  <text x="420" y="222" text-anchor="middle" font-style="italic" fill="white" font-size="13">M</text>
  <line x1="60" y1="160" x2="52" y2="160" stroke="white" stroke-width="1.5"/>
  <text x="46" y="165" text-anchor="end" fill="white" font-size="13">1</text>
  <line x1="60" y1="40" x2="52" y2="40" stroke="white" stroke-width="1.5"/>
  <text x="46" y="45" text-anchor="end" font-style="italic" fill="white" font-size="13">N</text>
  <line x1="94" y1="154" x2="106" y2="166" stroke="white" stroke-width="1.5"/>
  <line x1="106" y1="154" x2="94" y2="166" stroke="white" stroke-width="1.5"/>
  <line x1="134" y1="154" x2="146" y2="166" stroke="white" stroke-width="1.5"/>
  <line x1="146" y1="154" x2="134" y2="166" stroke="white" stroke-width="1.5"/>
  <line x1="134" y1="114" x2="146" y2="126" stroke="white" stroke-width="1.5"/>
  <line x1="146" y1="114" x2="134" y2="126" stroke="white" stroke-width="1.5"/>
  <line x1="174" y1="154" x2="186" y2="166" stroke="white" stroke-width="1.5"/>
  <line x1="186" y1="154" x2="174" y2="166" stroke="white" stroke-width="1.5"/>
  <line x1="174" y1="114" x2="186" y2="126" stroke="white" stroke-width="1.5"/>
  <line x1="186" y1="114" x2="174" y2="126" stroke="white" stroke-width="1.5"/>
  <line x1="174" y1="74" x2="186" y2="86" stroke="white" stroke-width="1.5"/>
  <line x1="186" y1="74" x2="174" y2="86" stroke="white" stroke-width="1.5"/>
  <line x1="214" y1="154" x2="226" y2="166" stroke="white" stroke-width="1.5"/>
  <line x1="226" y1="154" x2="214" y2="166" stroke="white" stroke-width="1.5"/>
  <line x1="214" y1="114" x2="226" y2="126" stroke="white" stroke-width="1.5"/>
  <line x1="226" y1="114" x2="214" y2="126" stroke="white" stroke-width="1.5"/>
  <line x1="214" y1="74" x2="226" y2="86" stroke="white" stroke-width="1.5"/>
  <line x1="226" y1="74" x2="214" y2="86" stroke="white" stroke-width="1.5"/>
  <line x1="214" y1="34" x2="226" y2="46" stroke="white" stroke-width="1.5"/>
  <line x1="226" y1="34" x2="214" y2="46" stroke="white" stroke-width="1.5"/>
  <line x1="254" y1="154" x2="266" y2="166" stroke="white" stroke-width="1.5"/>
  <line x1="266" y1="154" x2="254" y2="166" stroke="white" stroke-width="1.5"/>
  <line x1="254" y1="114" x2="266" y2="126" stroke="white" stroke-width="1.5"/>
  <line x1="266" y1="114" x2="254" y2="126" stroke="white" stroke-width="1.5"/>
  <line x1="254" y1="74" x2="266" y2="86" stroke="white" stroke-width="1.5"/>
  <line x1="266" y1="74" x2="254" y2="86" stroke="white" stroke-width="1.5"/>
  <line x1="254" y1="34" x2="266" y2="46" stroke="white" stroke-width="1.5"/>
  <line x1="266" y1="34" x2="254" y2="46" stroke="white" stroke-width="1.5"/>
  <line x1="294" y1="154" x2="306" y2="166" stroke="white" stroke-width="1.5"/>
  <line x1="306" y1="154" x2="294" y2="166" stroke="white" stroke-width="1.5"/>
  <line x1="294" y1="114" x2="306" y2="126" stroke="white" stroke-width="1.5"/>
  <line x1="306" y1="114" x2="294" y2="126" stroke="white" stroke-width="1.5"/>
  <line x1="294" y1="74" x2="306" y2="86" stroke="white" stroke-width="1.5"/>
  <line x1="306" y1="74" x2="294" y2="86" stroke="white" stroke-width="1.5"/>
  <line x1="294" y1="34" x2="306" y2="46" stroke="white" stroke-width="1.5"/>
  <line x1="306" y1="34" x2="294" y2="46" stroke="white" stroke-width="1.5"/>
  <line x1="334" y1="154" x2="346" y2="166" stroke="white" stroke-width="1.5"/>
  <line x1="346" y1="154" x2="334" y2="166" stroke="white" stroke-width="1.5"/>
  <line x1="334" y1="114" x2="346" y2="126" stroke="white" stroke-width="1.5"/>
  <line x1="346" y1="114" x2="334" y2="126" stroke="white" stroke-width="1.5"/>
  <line x1="334" y1="74" x2="346" y2="86" stroke="white" stroke-width="1.5"/>
  <line x1="346" y1="74" x2="334" y2="86" stroke="white" stroke-width="1.5"/>
  <line x1="334" y1="34" x2="346" y2="46" stroke="white" stroke-width="1.5"/>
  <line x1="346" y1="34" x2="334" y2="46" stroke="white" stroke-width="1.5"/>
  <line x1="374" y1="154" x2="386" y2="166" stroke="white" stroke-width="1.5"/>
  <line x1="386" y1="154" x2="374" y2="166" stroke="white" stroke-width="1.5"/>
  <line x1="374" y1="114" x2="386" y2="126" stroke="white" stroke-width="1.5"/>
  <line x1="386" y1="114" x2="374" y2="126" stroke="white" stroke-width="1.5"/>
  <line x1="374" y1="74" x2="386" y2="86" stroke="white" stroke-width="1.5"/>
  <line x1="386" y1="74" x2="374" y2="86" stroke="white" stroke-width="1.5"/>
  <line x1="374" y1="34" x2="386" y2="46" stroke="white" stroke-width="1.5"/>
  <line x1="386" y1="34" x2="374" y2="46" stroke="white" stroke-width="1.5"/>
  <line x1="414" y1="154" x2="426" y2="166" stroke="white" stroke-width="1.5"/>
  <line x1="426" y1="154" x2="414" y2="166" stroke="white" stroke-width="1.5"/>
  <line x1="414" y1="114" x2="426" y2="126" stroke="white" stroke-width="1.5"/>
  <line x1="426" y1="114" x2="414" y2="126" stroke="white" stroke-width="1.5"/>
  <line x1="414" y1="74" x2="426" y2="86" stroke="white" stroke-width="1.5"/>
  <line x1="426" y1="74" x2="414" y2="86" stroke="white" stroke-width="1.5"/>
  <line x1="414" y1="34" x2="426" y2="46" stroke="white" stroke-width="1.5"/>
  <line x1="426" y1="34" x2="414" y2="46" stroke="white" stroke-width="1.5"/>
  <circle cx="100" cy="120" r="5" fill="white"/>
  <circle cx="100" cy="80"  r="5" fill="white"/>
  <circle cx="100" cy="40"  r="5" fill="white"/>
  <circle cx="140" cy="80"  r="5" fill="white"/>
  <circle cx="140" cy="40"  r="5" fill="white"/>
  <circle cx="180" cy="40"  r="5" fill="white"/>
  <text x="145" y="244" text-anchor="middle" font-size="12" fill="#aaa">m &#x2264; N</text>
  <text x="335" y="244" text-anchor="middle" font-size="12" fill="#aaa">m &gt; N</text>
  <line x1="72" y1="262" x2="84" y2="274" stroke="white" stroke-width="1.5"/>
  <line x1="84" y1="262" x2="72" y2="274" stroke="white" stroke-width="1.5"/>
  <text x="92" y="273" font-size="12" fill="white">Region I (m &#x2265; n)</text>
  <circle cx="257" cy="268" r="5" fill="white"/>
  <text x="268" y="273" font-size="12" fill="white">Region II (m &lt; n)</text>
</svg>