<svg xmlns="http://www.w3.org/2000/svg" width="612" height="533">
  <rect width="100%" height="100%" fill="black"/>
  <polygon points="306.00,12.00 300.00,22.39 312.00,22.39" fill="white"/>
  <polygon points="300.00,22.39 294.00,32.78 306.00,32.78" fill="white"/>
  <polygon points="312.00,22.39 306.00,32.78 318.00,32.78" fill="white"/>
  <polygon points="294.00,32.78 288.00,43.18 300.00,43.18" fill="white"/>
  <polygon points="306.00,32.78 300.00,43.18 312.00,43.18" fill="white"/>
  <polygon points="318.00,32.78 312.00,43.18 324.00,43.18" fill="white"/>
  <polygon points="288.00,43.18 282.00,53.57 294.00,53.57" fill="white"/>
  <polygon points="300.00,43.18 294.00,53.57 306.00,53.57" fill="white"/>
  <polygon points="312.00,43.18 306.00,53.57 318.00,53.57" fill="white"/>
  <polygon points="324.00,43.18 318.00,53.57 330.00,53.57" fill="white"/>
  <polygon points="282.00,53.57 276.00,63.96 288.00,63.96" fill="white"/>
  <polygon points="294.00,53.57 288.00,63.96 300.00,63.96" fill="white"/>
  <polygon points="306.00,53.57 300.00,63.96 312.00,63.96" fill="white"/>
  <polygon points="318.00,53.57 312.00,63.96 324.00,63.96" fill="white"/>
  <polygon points="330.00,53.57 324.00,63.96 336.00,63.96" fill="white"/>
  <polygon points="276.00,63.96 270.00,74.35 282.00,74.35" fill="white"/>
  <polygon points="288.00,63.96 282.00,74.35 294.00,74.35" fill="white"/>
  <polygon points="300.00,63.96 294.00,74.35 306.00,74.35" fill="white"/>
  <polygon points="312.00,63.96 306.00,74.35 318.00,74.35" fill="white"/>
  <polygon points="324.00,63.96 318.00,74.35 330.00,74.35" fill="white"/>
  <polygon points="336.00,63.96 330.00,74.35 342.00,74.35" fill="white"/>
  <polygon points="270.00,74.35 264.00,84.75 276.00,84.75" fill="white"/>
  <polygon points="282.00,74.35 276.00,84.75 288.00,84.75" fill="white"/>
  <polygon points="294.00,74.35 288.00,84.75 300.00,84.75" fill="white"/>
  <polygon points="306.00,74.35 300.00,84.75 312.00,84.75" fill="white"/>
  <polygon points="318.00,74.35 312.00,84.75 324.00,84.75" fill="white"/>
  <polygon points="330.00,74.35 324.00,84.75 336.00,84.75" fill="white"/>
  <polygon points="342.00,74.35 336.00,84.75 348.00,84.75" fill="white"/>
  <polygon points="264.00,84.75 258.00,95.14 270.00,95.14" fill="white"/>
  <polygon points="348.00,84.75 342.00,95.14 354.00,95.14" fill="white"/>
  <polygon points="258.00,95.14 252.00,105.53 264.00,105.53" fill="white"/>
  <polygon points="270.00,95.14 264.00,105.53 276.00,105.53" fill="white"/>
  <polygon points="342.00,95.14 336.00,105.53 348.00,105.53" fill="white"/>
  <polygon points="354.00,95.14 348.00,105.53 360.00,105.53" fill="white"/>
  <polygon points="252.00,105.53 246.00,115.92 258.00,115.92" fill="white"/>
  <polygon points="264.00,105.53 258.00,115.92 270.00,115.92" fill="white"/>
  <polygon points="276.00,105.53 270.00,115.92 282.00,115.92" fill="white"/>
  <polygon points="336.00,105.53 330.00,115.92 342.00,115.92" fill="white"/>
  <polygon points="348.00,105.53 342.00,115.92 354.00,115.92" fill="white"/>
  <polygon points="360.00,105.53 354.00,115.92 366.00,115.92" fill="white"/>
  <polygon points="246.00,115.92 240.00,126.32 252.00,126.32" fill="white"/>
  <polygon points="258.00,115.92 252.00,126.32 264.00,126.32" fill="white"/>
  <polygon points="270.00,115.92 264.00,126.32 276.00,126.32" fill="white"/>
  <polygon points="282.00,115.92 276.00,126.32 288.00,126.32" fill="white"/>
  <polygon points="330.00,115.92 324.00,126.32 336.00,126.32" fill="white"/>
  <polygon points="342.00,115.92 336.00,126.32 348.00,126.32" fill="white"/>
  <polygon points="354.00,115.92 348.00,126.32 360.00,126.32" fill="white"/>
  <polygon points="366.00,115.92 360.00,126.32 372.00,126.32" fill="white"/>
  <polygon points="240.00,126.32 234.00,136.71 246.00,136.71" fill="white"/>
  <polygon points="252.00,126.32 246.00,136.71 258.00,136.71" fill="white"/>
  <polygon points="264.00,126.32 258.00,136.71 270.00,136.71" fill="white"/>
  <polygon points="276.00,126.32 270.00,136.71 282.00,136.71" fill="white"/>
  <polygon points="288.00,126.32 282.00,136.71 294.00,136.71" fill="white"/>
  <polygon points="324.00,126.32 318.00,136.71 330.00,136.71" fill="white"/>
  <polygon points="336.00,126.32 330.00,136.71 342.00,136.71" fill="white"/>
  <polygon points="348.00,126.32 342.00,136.71 354.00,136.71" fill="white"/>
  <polygon points="360.00,126.32 354.00,136.71 366.00,136.71" fill="white"/>
  <polygon points="372.00,126.32 366.00,136.71 378.00,136.71" fill="white"/>
  <polygon points="234.00,136.71 228.00,147.10 240.00,147.10" fill="white"/>
  <polygon points="246.00,136.71 240.00,147.10 252.00,147.10" fill="white"/>
  <polygon points="258.00,136.71 252.00,147.10 264.00,147.10" fill="white"/>
  <polygon points="270.00,136.71 264.00,147.10 276.00,147.10" fill="white"/>
  <polygon points="282.00,136.71 276.00,147.10 288.00,147.10" fill="white"/>
  <polygon points="294.00,136.71 288.00,147.10 300.00,147.10" fill="white"/>
  <polygon points="318.00,136.71 312.00,147.10 324.00,147.10" fill="white"/>
  <polygon points="330.00,136.71 324.00,147.10 336.00,147.10" fill="white"/>
  <polygon points="342.00,136.71 336.00,147.10 348.00,147.10" fill="white"/>
  <polygon points="354.00,136.71 348.00,147.10 360.00,147.10" fill="white"/>
  <polygon points="366.00,136.71 360.00,147.10 372.00,147.10" fill="white"/>
  <polygon points="378.00,136.71 372.00,147.10 384.00,147.10" fill="white"/>
  <polygon points="228.00,147.10 222.00,157.49 234.00,157.49" fill="white"/>
  <polygon points="240.00,147.10 234.00,157.49 246.00,157.49" fill="white"/>
  <polygon points="252.00,147.10 246.00,157.49 258.00,157.49" fill="white"/>
  <polygon points="264.00,147.10 258.00,157.49 270.00,157.49" fill="white"/>
  <polygon points="276.00,147.10 270.00,157.49 282.00,157.49" fill="white"/>
  <polygon points="288.00,147.10 282.00,157.49 294.00,157.49" fill="white"/>
  <polygon points="300.00,147.10 294.00,157.49 306.00,157.49" fill="white"/>
  <polygon points="312.00,147.10 306.00,157.49 318.00,157.49" fill="white"/>
  <polygon points="324.00,147.10 318.00,157.49 330.00,157.49" fill="white"/>
  <polygon points="336.00,147.10 330.00,157.49 342.00,157.49" fill="white"/>
  <polygon points="348.00,147.10 342.00,157.49 354.00,157.49" fill="white"/>
  <polygon points="360.00,147.10 354.00,157.49 366.00,157.49" fill="white"/>
  <polygon points="372.00,147.10 366.00,157.49 378.00,157.49" fill="white"/>
  <polygon points="384.00,147.10 378.00,157.49 390.00,157.49" fill="white"/>
  <polygon points="222.00,157.49 216.00,167.88 228.00,167.88" fill="white"/>
  <polygon points="306.00,157.49 300.00,167.88 312.00,167.88" fill="white"/>
  <polygon points="390.00,157.49 384.00,167.88 396.00,167.88" fill="white"/>
  <polygon points="216.00,167.88 210.00,178.28 222.00,178.28" fill="white"/>
  <polygon points="228.00,167.88 222.00,178.28 234.00,178.28" fill="white"/>
  <polygon points="300.00,167.88 294.00,178.28 306.00,178.28" fill="white"/>
  <polygon points="312.00,167.88 306.00,178.28 318.00,178.28" fill="white"/>
  <polygon points="384.00,167.88 378.00,178.28 390.00,178.28" fill="white"/>
  <polygon points="396.00,167.88 390.00,178.28 402.00,178.28" fill="white"/>
  <polygon points="210.00,178.28 204.00,188.67 216.00,188.67" fill="white"/>
  <polygon points="222.00,178.28 216.00,188.67 228.00,188.67" fill="white"/>
  <polygon points="234.00,178.28 228.00,188.67 240.00,188.67" fill="white"/>
  <polygon points="294.00,178.28 288.00,188.67 300.00,188.67" fill="white"/>
  <polygon points="306.00,178.28 300.00,188.67 312.00,188.67" fill="white"/>
  <polygon points="318.00,178.28 312.00,188.67 324.00,188.67" fill="white"/>
  <polygon points="378.00,178.28 372.00,188.67 384.00,188.67" fill="white"/>
  <polygon points="390.00,178.28 384.00,188.67 396.00,188.67" fill="white"/>
  <polygon points="402.00,178.28 396.00,188.67 408.00,188.67" fill="white"/>
  <polygon points="204.00,188.67 198.00,199.06 210.00,199.06" fill="white"/>
  <polygon points="216.00,188.67 210.00,199.06 222.00,199.06" fill="white"/>
  <polygon points="228.00,188.67 222.00,199.06 234.00,199.06" fill="white"/>
  <polygon points="240.00,188.67 234.00,199.06 246.00,199.06" fill="white"/>
  <polygon points="288.00,188.67 282.00,199.06 294.00,199.06" fill="white"/>
  <polygon points="300.00,188.67 294.00,199.06 306.00,199.06" fill="white"/>
  <polygon points="312.00,188.67 306.00,199.06 318.00,199.06" fill="white"/>
  <polygon points="324.00,188.67 318.00,199.06 330.00,199.06" fill="white"/>
  <polygon points="372.00,188.67 366.00,199.06 378.00,199.06" fill="white"/>
  <polygon points="384.00,188.67 378.00,199.06 390.00,199.06" fill="white"/>
  <polygon points="396.00,188.67 390.00,199.06 402.00,199.06" fill="white"/>
  <polygon points="408.00,188.67 402.00,199.06 414.00,199.06" fill="#888888"/>
  <polygon points="198.00,199.06 192.00,209.45 204.00,209.45" fill="white"/>
  <polygon points="210.00,199.06 204.00,209.45 216.00,209.45" fill="white"/>
  <polygon points="222.00,199.06 216.00,209.45 228.00,209.45" fill="white"/>
  <polygon points="234.00,199.06 228.00,209.45 240.00,209.45" fill="white"/>
  <polygon points="246.00,199.06 240.00,209.45 252.00,209.45" fill="white"/>
  <polygon points="282.00,199.06 276.00,209.45 288.00,209.45" fill="white"/>
  <polygon points="294.00,199.06 288.00,209.45 300.00,209.45" fill="white"/>
  <polygon points="306.00,199.06 300.00,209.45 312.00,209.45" fill="white"/>
  <polygon points="318.00,199.06 312.00,209.45 324.00,209.45" fill="white"/>
  <polygon points="330.00,199.06 324.00,209.45 336.00,209.45" fill="white"/>
  <polygon points="366.00,199.06 360.00,209.45 372.00,209.45" fill="white"/>
  <polygon points="378.00,199.06 372.00,209.45 384.00,209.45" fill="white"/>
  <polygon points="390.00,199.06 384.00,209.45 396.00,209.45" fill="white"/>
  <polygon points="402.00,199.06 396.00,209.45 408.00,209.45" fill="#888888"/>
  <polygon points="414.00,199.06 408.00,209.45 420.00,209.45" fill="#888888"/>
  <polygon points="192.00,209.45 186.00,219.85 198.00,219.85" fill="white"/>
  <polygon points="204.00,209.45 198.00,219.85 210.00,219.85" fill="white"/>
  <polygon points="216.00,209.45 210.00,219.85 222.00,219.85" fill="white"/>
  <polygon points="228.00,209.45 222.00,219.85 234.00,219.85" fill="white"/>
  <polygon points="240.00,209.45 234.00,219.85 246.00,219.85" fill="white"/>
  <polygon points="252.00,209.45 246.00,219.85 258.00,219.85" fill="white"/>
  <polygon points="276.00,209.45 270.00,219.85 282.00,219.85" fill="white"/>
  <polygon points="288.00,209.45 282.00,219.85 294.00,219.85" fill="white"/>
  <polygon points="300.00,209.45 294.00,219.85 306.00,219.85" fill="white"/>
  <polygon points="312.00,209.45 306.00,219.85 318.00,219.85" fill="white"/>
  <polygon points="324.00,209.45 318.00,219.85 330.00,219.85" fill="white"/>
  <polygon points="336.00,209.45 330.00,219.85 342.00,219.85" fill="white"/>
  <polygon points="360.00,209.45 354.00,219.85 366.00,219.85" fill="white"/>
  <polygon points="372.00,209.45 366.00,219.85 378.00,219.85" fill="white"/>
  <polygon points="384.00,209.45 378.00,219.85 390.00,219.85" fill="white"/>
  <polygon points="396.00,209.45 390.00,219.85 402.00,219.85" fill="#888888"/>
  <polygon points="408.00,209.45 402.00,219.85 414.00,219.85" fill="#888888"/>
  <polygon points="420.00,209.45 414.00,219.85 426.00,219.85" fill="#888888"/>
  <polygon points="186.00,219.85 180.00,230.24 192.00,230.24" fill="white"/>
  <polygon points="198.00,219.85 192.00,230.24 204.00,230.24" fill="white"/>
  <polygon points="210.00,219.85 204.00,230.24 216.00,230.24" fill="white"/>
  <polygon points="222.00,219.85 216.00,230.24 228.00,230.24" fill="white"/>
  <polygon points="234.00,219.85 228.00,230.24 240.00,230.24" fill="white"/>
  <polygon points="246.00,219.85 240.00,230.24 252.00,230.24" fill="white"/>
  <polygon points="258.00,219.85 252.00,230.24 264.00,230.24" fill="white"/>
  <polygon points="270.00,219.85 264.00,230.24 276.00,230.24" fill="white"/>
  <polygon points="282.00,219.85 276.00,230.24 288.00,230.24" fill="white"/>
  <polygon points="294.00,219.85 288.00,230.24 300.00,230.24" fill="white"/>
  <polygon points="306.00,219.85 300.00,230.24 312.00,230.24" fill="white"/>
  <polygon points="318.00,219.85 312.00,230.24 324.00,230.24" fill="white"/>
  <polygon points="330.00,219.85 324.00,230.24 336.00,230.24" fill="white"/>
  <polygon points="342.00,219.85 336.00,230.24 348.00,230.24" fill="white"/>
  <polygon points="354.00,219.85 348.00,230.24 360.00,230.24" fill="white"/>
  <polygon points="366.00,219.85 360.00,230.24 372.00,230.24" fill="white"/>
  <polygon points="378.00,219.85 372.00,230.24 384.00,230.24" fill="white"/>
  <polygon points="390.00,219.85 384.00,230.24 396.00,230.24" fill="#888888"/>
  <polygon points="402.00,219.85 396.00,230.24 408.00,230.24" fill="#888888"/>
  <polygon points="414.00,219.85 408.00,230.24 420.00,230.24" fill="#888888"/>
  <polygon points="426.00,219.85 420.00,230.24 432.00,230.24" fill="#888888"/>
  <polygon points="180.00,230.24 174.00,240.63 186.00,240.63" fill="white"/>
  <polygon points="264.00,230.24 258.00,240.63 270.00,240.63" fill="white"/>
  <polygon points="348.00,230.24 342.00,240.63 354.00,240.63" fill="white"/>
  <polygon points="432.00,230.24 426.00,240.63 438.00,240.63" fill="#888888"/>
  <polygon points="174.00,240.63 168.00,251.02 180.00,251.02" fill="white"/>
  <polygon points="186.00,240.63 180.00,251.02 192.00,251.02" fill="white"/>
  <polygon points="258.00,240.63 252.00,251.02 264.00,251.02" fill="white"/>
  <polygon points="270.00,240.63 264.00,251.02 276.00,251.02" fill="white"/>
  <polygon points="342.00,240.63 336.00,251.02 348.00,251.02" fill="white"/>
  <polygon points="354.00,240.63 348.00,251.02 360.00,251.02" fill="white"/>
  <polygon points="426.00,240.63 420.00,251.02 432.00,251.02" fill="#888888"/>
  <polygon points="438.00,240.63 432.00,251.02 444.00,251.02" fill="#888888"/>
  <polygon points="168.00,251.02 162.00,261.42 174.00,261.42" fill="white"/>
  <polygon points="180.00,251.02 174.00,261.42 186.00,261.42" fill="white"/>
  <polygon points="192.00,251.02 186.00,261.42 198.00,261.42" fill="white"/>
  <polygon points="252.00,251.02 246.00,261.42 258.00,261.42" fill="white"/>
  <polygon points="264.00,251.02 258.00,261.42 270.00,261.42" fill="white"/>
  <polygon points="276.00,251.02 270.00,261.42 282.00,261.42" fill="white"/>
  <polygon points="336.00,251.02 330.00,261.42 342.00,261.42" fill="white"/>
  <polygon points="348.00,251.02 342.00,261.42 354.00,261.42" fill="white"/>
  <polygon points="360.00,251.02 354.00,261.42 366.00,261.42" fill="white"/>
  <polygon points="420.00,251.02 414.00,261.42 426.00,261.42" fill="#888888"/>
  <polygon points="432.00,251.02 426.00,261.42 438.00,261.42" fill="#888888"/>
  <polygon points="444.00,251.02 438.00,261.42 450.00,261.42" fill="#888888"/>
  <polygon points="162.00,261.42 156.00,271.81 168.00,271.81" fill="white"/>
  <polygon points="174.00,261.42 168.00,271.81 180.00,271.81" fill="white"/>
  <polygon points="186.00,261.42 180.00,271.81 192.00,271.81" fill="white"/>
  <polygon points="198.00,261.42 192.00,271.81 204.00,271.81" fill="white"/>
  <polygon points="246.00,261.42 240.00,271.81 252.00,271.81" fill="white"/>
  <polygon points="258.00,261.42 252.00,271.81 264.00,271.81" fill="white"/>
  <polygon points="270.00,261.42 264.00,271.81 276.00,271.81" fill="white"/>
  <polygon points="282.00,261.42 276.00,271.81 288.00,271.81" fill="white"/>
  <polygon points="330.00,261.42 324.00,271.81 336.00,271.81" fill="white"/>
  <polygon points="342.00,261.42 336.00,271.81 348.00,271.81" fill="white"/>
  <polygon points="354.00,261.42 348.00,271.81 360.00,271.81" fill="white"/>
  <polygon points="366.00,261.42 360.00,271.81 372.00,271.81" fill="#888888"/>
  <polygon points="414.00,261.42 408.00,271.81 420.00,271.81" fill="#888888"/>
  <polygon points="426.00,261.42 420.00,271.81 432.00,271.81" fill="#888888"/>
  <polygon points="438.00,261.42 432.00,271.81 444.00,271.81" fill="#888888"/>
  <polygon points="450.00,261.42 444.00,271.81 456.00,271.81" fill="#888888"/>
  <polygon points="156.00,271.81 150.00,282.20 162.00,282.20" fill="white"/>
  <polygon points="168.00,271.81 162.00,282.20 174.00,282.20" fill="white"/>
  <polygon points="180.00,271.81 174.00,282.20 186.00,282.20" fill="white"/>
  <polygon points="192.00,271.81 186.00,282.20 198.00,282.20" fill="white"/>
  <polygon points="204.00,271.81 198.00,282.20 210.00,282.20" fill="white"/>
  <polygon points="240.00,271.81 234.00,282.20 246.00,282.20" fill="white"/>
  <polygon points="252.00,271.81 246.00,282.20 258.00,282.20" fill="white"/>
  <polygon points="264.00,271.81 258.00,282.20 270.00,282.20" fill="white"/>
  <polygon points="276.00,271.81 270.00,282.20 282.00,282.20" fill="white"/>
  <polygon points="288.00,271.81 282.00,282.20 294.00,282.20" fill="white"/>
  <polygon points="324.00,271.81 318.00,282.20 330.00,282.20" fill="white"/>
  <polygon points="336.00,271.81 330.00,282.20 342.00,282.20" fill="white"/>
  <polygon points="348.00,271.81 342.00,282.20 354.00,282.20" fill="white"/>
  <polygon points="360.00,271.81 354.00,282.20 366.00,282.20" fill="#888888"/>
  <polygon points="372.00,271.81 366.00,282.20 378.00,282.20" fill="#888888"/>
  <polygon points="408.00,271.81 402.00,282.20 414.00,282.20" fill="#888888"/>
  <polygon points="420.00,271.81 414.00,282.20 426.00,282.20" fill="#888888"/>
  <polygon points="432.00,271.81 426.00,282.20 438.00,282.20" fill="#888888"/>
  <polygon points="444.00,271.81 438.00,282.20 450.00,282.20" fill="#888888"/>
  <polygon points="456.00,271.81 450.00,282.20 462.00,282.20" fill="#888888"/>
  <polygon points="150.00,282.20 144.00,292.59 156.00,292.59" fill="white"/>
  <polygon points="162.00,282.20 156.00,292.59 168.00,292.59" fill="white"/>
  <polygon points="174.00,282.20 168.00,292.59 180.00,292.59" fill="white"/>
  <polygon points="186.00,282.20 180.00,292.59 192.00,292.59" fill="white"/>
  <polygon points="198.00,282.20 192.00,292.59 204.00,292.59" fill="white"/>
  <polygon points="210.00,282.20 204.00,292.59 216.00,292.59" fill="white"/>
  <polygon points="234.00,282.20 228.00,292.59 240.00,292.59" fill="white"/>
  <polygon points="246.00,282.20 240.00,292.59 252.00,292.59" fill="white"/>
  <polygon points="258.00,282.20 252.00,292.59 264.00,292.59" fill="white"/>
  <polygon points="270.00,282.20 264.00,292.59 276.00,292.59" fill="white"/>
  <polygon points="282.00,282.20 276.00,292.59 288.00,292.59" fill="white"/>
  <polygon points="294.00,282.20 288.00,292.59 300.00,292.59" fill="white"/>
  <polygon points="318.00,282.20 312.00,292.59 324.00,292.59" fill="white"/>
  <polygon points="330.00,282.20 324.00,292.59 336.00,292.59" fill="white"/>
  <polygon points="342.00,282.20 336.00,292.59 348.00,292.59" fill="white"/>
  <polygon points="354.00,282.20 348.00,292.59 360.00,292.59" fill="#888888"/>
  <polygon points="366.00,282.20 360.00,292.59 372.00,292.59" fill="#888888"/>
  <polygon points="378.00,282.20 372.00,292.59 384.00,292.59" fill="#888888"/>
  <polygon points="402.00,282.20 396.00,292.59 408.00,292.59" fill="#888888"/>
  <polygon points="414.00,282.20 408.00,292.59 420.00,292.59" fill="#888888"/>
  <polygon points="426.00,282.20 420.00,292.59 432.00,292.59" fill="#888888"/>
  <polygon points="438.00,282.20 432.00,292.59 444.00,292.59" fill="#888888"/>
  <polygon points="450.00,282.20 444.00,292.59 456.00,292.59" fill="#888888"/>
  <polygon points="462.00,282.20 456.00,292.59 468.00,292.59" fill="#888888"/>
  <polygon points="144.00,292.59 138.00,302.98 150.00,302.98" fill="white"/>
  <polygon points="156.00,292.59 150.00,302.98 162.00,302.98" fill="white"/>
  <polygon points="168.00,292.59 162.00,302.98 174.00,302.98" fill="white"/>
  <polygon points="180.00,292.59 174.00,302.98 186.00,302.98" fill="white"/>
  <polygon points="192.00,292.59 186.00,302.98 198.00,302.98" fill="white"/>
  <polygon points="204.00,292.59 198.00,302.98 210.00,302.98" fill="white"/>
  <polygon points="216.00,292.59 210.00,302.98 222.00,302.98" fill="white"/>
  <polygon points="228.00,292.59 222.00,302.98 234.00,302.98" fill="white"/>
  <polygon points="240.00,292.59 234.00,302.98 246.00,302.98" fill="white"/>
  <polygon points="252.00,292.59 246.00,302.98 258.00,302.98" fill="white"/>
  <polygon points="264.00,292.59 258.00,302.98 270.00,302.98" fill="white"/>
  <polygon points="276.00,292.59 270.00,302.98 282.00,302.98" fill="white"/>
  <polygon points="288.00,292.59 282.00,302.98 294.00,302.98" fill="white"/>
  <polygon points="300.00,292.59 294.00,302.98 306.00,302.98" fill="white"/>
  <polygon points="312.00,292.59 306.00,302.98 318.00,302.98" fill="white"/>
  <polygon points="324.00,292.59 318.00,302.98 330.00,302.98" fill="white"/>
  <polygon points="336.00,292.59 330.00,302.98 342.00,302.98" fill="white"/>
  <polygon points="348.00,292.59 342.00,302.98 354.00,302.98" fill="#888888"/>
  <polygon points="360.00,292.59 354.00,302.98 366.00,302.98" fill="#888888"/>
  <polygon points="372.00,292.59 366.00,302.98 378.00,302.98" fill="#888888"/>
  <polygon points="384.00,292.59 378.00,302.98 390.00,302.98" fill="#888888"/>
  <polygon points="396.00,292.59 390.00,302.98 402.00,302.98" fill="#888888"/>
  <polygon points="408.00,292.59 402.00,302.98 414.00,302.98" fill="#888888"/>
  <polygon points="420.00,292.59 414.00,302.98 426.00,302.98" fill="#888888"/>
  <polygon points="432.00,292.59 426.00,302.98 438.00,302.98" fill="#888888"/>
  <polygon points="444.00,292.59 438.00,302.98 450.00,302.98" fill="#888888"/>
  <polygon points="456.00,292.59 450.00,302.98 462.00,302.98" fill="#888888"/>
  <polygon points="468.00,292.59 462.00,302.98 474.00,302.98" fill="#888888"/>
  <polygon points="138.00,302.98 132.00,313.38 144.00,313.38" fill="white"/>
  <polygon points="222.00,302.98 216.00,313.38 228.00,313.38" fill="white"/>
  <polygon points="306.00,302.98 300.00,313.38 312.00,313.38" fill="white"/>
  <polygon points="390.00,302.98 384.00,313.38 396.00,313.38" fill="#888888"/>
  <polygon points="474.00,302.98 468.00,313.38 480.00,313.38" fill="#888888"/>
  <polygon points="132.00,313.38 126.00,323.77 138.00,323.77" fill="white"/>
  <polygon points="144.00,313.38 138.00,323.77 150.00,323.77" fill="white"/>
  <polygon points="216.00,313.38 210.00,323.77 222.00,323.77" fill="white"/>
  <polygon points="228.00,313.38 222.00,323.77 234.00,323.77" fill="white"/>
  <polygon points="300.00,313.38 294.00,323.77 306.00,323.77" fill="white"/>
  <polygon points="312.00,313.38 306.00,323.77 318.00,323.77" fill="white"/>
  <polygon points="384.00,313.38 378.00,323.77 390.00,323.77" fill="#888888"/>
  <polygon points="396.00,313.38 390.00,323.77 402.00,323.77" fill="#888888"/>
  <polygon points="468.00,313.38 462.00,323.77 474.00,323.77" fill="#888888"/>
  <polygon points="480.00,313.38 474.00,323.77 486.00,323.77" fill="#888888"/>
  <polygon points="126.00,323.77 120.00,334.16 132.00,334.16" fill="white"/>
  <polygon points="138.00,323.77 132.00,334.16 144.00,334.16" fill="white"/>
  <polygon points="150.00,323.77 144.00,334.16 156.00,334.16" fill="white"/>
  <polygon points="210.00,323.77 204.00,334.16 216.00,334.16" fill="white"/>
  <polygon points="222.00,323.77 216.00,334.16 228.00,334.16" fill="white"/>
  <polygon points="234.00,323.77 228.00,334.16 240.00,334.16" fill="white"/>
  <polygon points="294.00,323.77 288.00,334.16 300.00,334.16" fill="white"/>
  <polygon points="306.00,323.77 300.00,334.16 312.00,334.16" fill="white"/>
  <polygon points="318.00,323.77 312.00,334.16 324.00,334.16" fill="white"/>
  <polygon points="378.00,323.77 372.00,334.16 384.00,334.16" fill="#888888"/>
  <polygon points="390.00,323.77 384.00,334.16 396.00,334.16" fill="#888888"/>
  <polygon points="402.00,323.77 396.00,334.16 408.00,334.16" fill="#888888"/>
  <polygon points="462.00,323.77 456.00,334.16 468.00,334.16" fill="#888888"/>
  <polygon points="474.00,323.77 468.00,334.16 480.00,334.16" fill="#888888"/>
  <polygon points="486.00,323.77 480.00,334.16 492.00,334.16" fill="#888888"/>
  <polygon points="120.00,334.16 114.00,344.55 126.00,344.55" fill="white"/>
  <polygon points="132.00,334.16 126.00,344.55 138.00,344.55" fill="white"/>
  <polygon points="144.00,334.16 138.00,344.55 150.00,344.55" fill="white"/>
  <polygon points="156.00,334.16 150.00,344.55 162.00,344.55" fill="white"/>
  <polygon points="204.00,334.16 198.00,344.55 210.00,344.55" fill="white"/>
  <polygon points="216.00,334.16 210.00,344.55 222.00,344.55" fill="white"/>
  <polygon points="228.00,334.16 222.00,344.55 234.00,344.55" fill="white"/>
  <polygon points="240.00,334.16 234.00,344.55 246.00,344.55" fill="white"/>
  <polygon points="288.00,334.16 282.00,344.55 294.00,344.55" fill="white"/>
  <polygon points="300.00,334.16 294.00,344.55 306.00,344.55" fill="white"/>
  <polygon points="312.00,334.16 306.00,344.55 318.00,344.55" fill="white"/>
  <polygon points="324.00,334.16 318.00,344.55 330.00,344.55" fill="#888888"/>
  <polygon points="372.00,334.16 366.00,344.55 378.00,344.55" fill="#888888"/>
  <polygon points="384.00,334.16 378.00,344.55 390.00,344.55" fill="#888888"/>
  <polygon points="396.00,334.16 390.00,344.55 402.00,344.55" fill="#888888"/>
  <polygon points="408.00,334.16 402.00,344.55 414.00,344.55" fill="#888888"/>
  <polygon points="456.00,334.16 450.00,344.55 462.00,344.55" fill="#888888"/>
  <polygon points="468.00,334.16 462.00,344.55 474.00,344.55" fill="#888888"/>
  <polygon points="480.00,334.16 474.00,344.55 486.00,344.55" fill="#888888"/>
  <polygon points="492.00,334.16 486.00,344.55 498.00,344.55" fill="#888888"/>
  <polygon points="114.00,344.55 108.00,354.95 120.00,354.95" fill="white"/>
  <polygon points="126.00,344.55 120.00,354.95 132.00,354.95" fill="white"/>
  <polygon points="138.00,344.55 132.00,354.95 144.00,354.95" fill="white"/>
  <polygon points="150.00,344.55 144.00,354.95 156.00,354.95" fill="white"/>
  <polygon points="162.00,344.55 156.00,354.95 168.00,354.95" fill="white"/>
  <polygon points="198.00,344.55 192.00,354.95 204.00,354.95" fill="white"/>
  <polygon points="210.00,344.55 204.00,354.95 216.00,354.95" fill="white"/>
  <polygon points="222.00,344.55 216.00,354.95 228.00,354.95" fill="white"/>
  <polygon points="234.00,344.55 228.00,354.95 240.00,354.95" fill="white"/>
  <polygon points="246.00,344.55 240.00,354.95 252.00,354.95" fill="white"/>
  <polygon points="282.00,344.55 276.00,354.95 288.00,354.95" fill="white"/>
  <polygon points="294.00,344.55 288.00,354.95 300.00,354.95" fill="white"/>
  <polygon points="306.00,344.55 300.00,354.95 312.00,354.95" fill="white"/>
  <polygon points="318.00,344.55 312.00,354.95 324.00,354.95" fill="#888888"/>
  <polygon points="330.00,344.55 324.00,354.95 336.00,354.95" fill="#888888"/>
  <polygon points="366.00,344.55 360.00,354.95 372.00,354.95" fill="#888888"/>
  <polygon points="378.00,344.55 372.00,354.95 384.00,354.95" fill="#888888"/>
  <polygon points="390.00,344.55 384.00,354.95 396.00,354.95" fill="#888888"/>
  <polygon points="402.00,344.55 396.00,354.95 408.00,354.95" fill="#888888"/>
  <polygon points="414.00,344.55 408.00,354.95 420.00,354.95" fill="#888888"/>
  <polygon points="450.00,344.55 444.00,354.95 456.00,354.95" fill="#888888"/>
  <polygon points="462.00,344.55 456.00,354.95 468.00,354.95" fill="#888888"/>
  <polygon points="474.00,344.55 468.00,354.95 480.00,354.95" fill="#888888"/>
  <polygon points="486.00,344.55 480.00,354.95 492.00,354.95" fill="#888888"/>
  <polygon points="498.00,344.55 492.00,354.95 504.00,354.95" fill="#888888"/>
  <polygon points="108.00,354.95 102.00,365.34 114.00,365.34" fill="white"/>
  <polygon points="120.00,354.95 114.00,365.34 126.00,365.34" fill="white"/>
  <polygon points="132.00,354.95 126.00,365.34 138.00,365.34" fill="white"/>
  <polygon points="144.00,354.95 138.00,365.34 150.00,365.34" fill="white"/>
  <polygon points="156.00,354.95 150.00,365.34 162.00,365.34" fill="white"/>
  <polygon points="168.00,354.95 162.00,365.34 174.00,365.34" fill="white"/>
  <polygon points="192.00,354.95 186.00,365.34 198.00,365.34" fill="white"/>
  <polygon points="204.00,354.95 198.00,365.34 210.00,365.34" fill="white"/>
  <polygon points="216.00,354.95 210.00,365.34 222.00,365.34" fill="white"/>
  <polygon points="228.00,354.95 222.00,365.34 234.00,365.34" fill="white"/>
  <polygon points="240.00,354.95 234.00,365.34 246.00,365.34" fill="white"/>
  <polygon points="252.00,354.95 246.00,365.34 258.00,365.34" fill="white"/>
  <polygon points="276.00,354.95 270.00,365.34 282.00,365.34" fill="white"/>
  <polygon points="288.00,354.95 282.00,365.34 294.00,365.34" fill="white"/>
  <polygon points="300.00,354.95 294.00,365.34 306.00,365.34" fill="white"/>
  <polygon points="312.00,354.95 306.00,365.34 318.00,365.34" fill="#888888"/>
  <polygon points="324.00,354.95 318.00,365.34 330.00,365.34" fill="#888888"/>
  <polygon points="336.00,354.95 330.00,365.34 342.00,365.34" fill="#888888"/>
  <polygon points="360.00,354.95 354.00,365.34 366.00,365.34" fill="#888888"/>
  <polygon points="372.00,354.95 366.00,365.34 378.00,365.34" fill="#888888"/>
  <polygon points="384.00,354.95 378.00,365.34 390.00,365.34" fill="#888888"/>
  <polygon points="396.00,354.95 390.00,365.34 402.00,365.34" fill="#888888"/>
  <polygon points="408.00,354.95 402.00,365.34 414.00,365.34" fill="#888888"/>
  <polygon points="420.00,354.95 414.00,365.34 426.00,365.34" fill="#888888"/>
  <polygon points="444.00,354.95 438.00,365.34 450.00,365.34" fill="#888888"/>
  <polygon points="456.00,354.95 450.00,365.34 462.00,365.34" fill="#888888"/>
  <polygon points="468.00,354.95 462.00,365.34 474.00,365.34" fill="#888888"/>
  <polygon points="480.00,354.95 474.00,365.34 486.00,365.34" fill="#888888"/>
  <polygon points="492.00,354.95 486.00,365.34 498.00,365.34" fill="#888888"/>
  <polygon points="504.00,354.95 498.00,365.34 510.00,365.34" fill="#888888"/>
  <polygon points="102.00,365.34 96.00,375.73 108.00,375.73" fill="white"/>
  <polygon points="114.00,365.34 108.00,375.73 120.00,375.73" fill="white"/>
  <polygon points="126.00,365.34 120.00,375.73 132.00,375.73" fill="white"/>
  <polygon points="138.00,365.34 132.00,375.73 144.00,375.73" fill="white"/>
  <polygon points="150.00,365.34 144.00,375.73 156.00,375.73" fill="white"/>
  <polygon points="162.00,365.34 156.00,375.73 168.00,375.73" fill="white"/>
  <polygon points="174.00,365.34 168.00,375.73 180.00,375.73" fill="white"/>
  <polygon points="186.00,365.34 180.00,375.73 192.00,375.73" fill="white"/>
  <polygon points="198.00,365.34 192.00,375.73 204.00,375.73" fill="white"/>
  <polygon points="210.00,365.34 204.00,375.73 216.00,375.73" fill="white"/>
  <polygon points="222.00,365.34 216.00,375.73 228.00,375.73" fill="white"/>
  <polygon points="234.00,365.34 228.00,375.73 240.00,375.73" fill="white"/>
  <polygon points="246.00,365.34 240.00,375.73 252.00,375.73" fill="white"/>
  <polygon points="258.00,365.34 252.00,375.73 264.00,375.73" fill="white"/>
  <polygon points="270.00,365.34 264.00,375.73 276.00,375.73" fill="white"/>
  <polygon points="282.00,365.34 276.00,375.73 288.00,375.73" fill="white"/>
  <polygon points="294.00,365.34 288.00,375.73 300.00,375.73" fill="white"/>
  <polygon points="306.00,365.34 300.00,375.73 312.00,375.73" fill="#888888"/>
  <polygon points="318.00,365.34 312.00,375.73 324.00,375.73" fill="#888888"/>
  <polygon points="330.00,365.34 324.00,375.73 336.00,375.73" fill="#888888"/>
  <polygon points="342.00,365.34 336.00,375.73 348.00,375.73" fill="#888888"/>
  <polygon points="354.00,365.34 348.00,375.73 360.00,375.73" fill="#888888"/>
  <polygon points="366.00,365.34 360.00,375.73 372.00,375.73" fill="#888888"/>
  <polygon points="378.00,365.34 372.00,375.73 384.00,375.73" fill="#888888"/>
  <polygon points="390.00,365.34 384.00,375.73 396.00,375.73" fill="#888888"/>
  <polygon points="402.00,365.34 396.00,375.73 408.00,375.73" fill="#888888"/>
  <polygon points="414.00,365.34 408.00,375.73 420.00,375.73" fill="#888888"/>
  <polygon points="426.00,365.34 420.00,375.73 432.00,375.73" fill="#888888"/>
  <polygon points="438.00,365.34 432.00,375.73 444.00,375.73" fill="#888888"/>
  <polygon points="450.00,365.34 444.00,375.73 456.00,375.73" fill="#888888"/>
  <polygon points="462.00,365.34 456.00,375.73 468.00,375.73" fill="#888888"/>
  <polygon points="474.00,365.34 468.00,375.73 480.00,375.73" fill="#888888"/>
  <polygon points="486.00,365.34 480.00,375.73 492.00,375.73" fill="#888888"/>
  <polygon points="498.00,365.34 492.00,375.73 504.00,375.73" fill="#888888"/>
  <polygon points="510.00,365.34 504.00,375.73 516.00,375.73" fill="#888888"/>
  <polygon points="96.00,375.73 90.00,386.12 102.00,386.12" fill="white"/>
  <polygon points="180.00,375.73 174.00,386.12 186.00,386.12" fill="white"/>
  <polygon points="264.00,375.73 258.00,386.12 270.00,386.12" fill="white"/>
  <polygon points="348.00,375.73 342.00,386.12 354.00,386.12" fill="#888888"/>
  <polygon points="432.00,375.73 426.00,386.12 438.00,386.12" fill="#888888"/>
  <polygon points="516.00,375.73 510.00,386.12 522.00,386.12" fill="#888888"/>
  <polygon points="90.00,386.12 84.00,396.52 96.00,396.52" fill="white"/>
  <polygon points="102.00,386.12 96.00,396.52 108.00,396.52" fill="white"/>
  <polygon points="174.00,386.12 168.00,396.52 180.00,396.52" fill="white"/>
  <polygon points="186.00,386.12 180.00,396.52 192.00,396.52" fill="white"/>
  <polygon points="258.00,386.12 252.00,396.52 264.00,396.52" fill="white"/>
  <polygon points="270.00,386.12 264.00,396.52 276.00,396.52" fill="white"/>
  <polygon points="342.00,386.12 336.00,396.52 348.00,396.52" fill="#888888"/>
  <polygon points="354.00,386.12 348.00,396.52 360.00,396.52" fill="#888888"/>
  <polygon points="426.00,386.12 420.00,396.52 432.00,396.52" fill="#888888"/>
  <polygon points="438.00,386.12 432.00,396.52 444.00,396.52" fill="#888888"/>
  <polygon points="510.00,386.12 504.00,396.52 516.00,396.52" fill="#888888"/>
  <polygon points="522.00,386.12 516.00,396.52 528.00,396.52" fill="#888888"/>
  <polygon points="84.00,396.52 78.00,406.91 90.00,406.91" fill="white"/>
  <polygon points="96.00,396.52 90.00,406.91 102.00,406.91" fill="white"/>
  <polygon points="108.00,396.52 102.00,406.91 114.00,406.91" fill="white"/>
  <polygon points="168.00,396.52 162.00,406.91 174.00,406.91" fill="white"/>
  <polygon points="180.00,396.52 174.00,406.91 186.00,406.91" fill="white"/>
  <polygon points="192.00,396.52 186.00,406.91 198.00,406.91" fill="white"/>
  <polygon points="252.00,396.52 246.00,406.91 258.00,406.91" fill="white"/>
  <polygon points="264.00,396.52 258.00,406.91 270.00,406.91" fill="white"/>
  <polygon points="276.00,396.52 270.00,406.91 282.00,406.91" fill="white"/>
  <polygon points="336.00,396.52 330.00,406.91 342.00,406.91" fill="#888888"/>
  <polygon points="348.00,396.52 342.00,406.91 354.00,406.91" fill="#888888"/>
  <polygon points="360.00,396.52 354.00,406.91 366.00,406.91" fill="#888888"/>
  <polygon points="420.00,396.52 414.00,406.91 426.00,406.91" fill="#888888"/>
  <polygon points="432.00,396.52 426.00,406.91 438.00,406.91" fill="#888888"/>
  <polygon points="444.00,396.52 438.00,406.91 450.00,406.91" fill="#888888"/>
  <polygon points="504.00,396.52 498.00,406.91 510.00,406.91" fill="#888888"/>
  <polygon points="516.00,396.52 510.00,406.91 522.00,406.91" fill="#888888"/>
  <polygon points="528.00,396.52 522.00,406.91 534.00,406.91" fill="#888888"/>
  <polygon points="78.00,406.91 72.00,417.30 84.00,417.30" fill="white"/>
  <polygon points="90.00,406.91 84.00,417.30 96.00,417.30" fill="white"/>
  <polygon points="102.00,406.91 96.00,417.30 108.00,417.30" fill="white"/>
  <polygon points="114.00,406.91 108.00,417.30 120.00,417.30" fill="white"/>
  <polygon points="162.00,406.91 156.00,417.30 168.00,417.30" fill="white"/>
  <polygon points="174.00,406.91 168.00,417.30 180.00,417.30" fill="white"/>
  <polygon points="186.00,406.91 180.00,417.30 192.00,417.30" fill="white"/>
  <polygon points="198.00,406.91 192.00,417.30 204.00,417.30" fill="white"/>
  <polygon points="246.00,406.91 240.00,417.30 252.00,417.30" fill="white"/>
  <polygon points="258.00,406.91 252.00,417.30 264.00,417.30" fill="white"/>
  <polygon points="270.00,406.91 264.00,417.30 276.00,417.30" fill="white"/>
  <polygon points="282.00,406.91 276.00,417.30 288.00,417.30" fill="#888888"/>
  <polygon points="330.00,406.91 324.00,417.30 336.00,417.30" fill="#888888"/>
  <polygon points="342.00,406.91 336.00,417.30 348.00,417.30" fill="#888888"/>
  <polygon points="354.00,406.91 348.00,417.30 360.00,417.30" fill="#888888"/>
  <polygon points="366.00,406.91 360.00,417.30 372.00,417.30" fill="#888888"/>
  <polygon points="414.00,406.91 408.00,417.30 420.00,417.30" fill="#888888"/>
  <polygon points="426.00,406.91 420.00,417.30 432.00,417.30" fill="#888888"/>
  <polygon points="438.00,406.91 432.00,417.30 444.00,417.30" fill="#888888"/>
  <polygon points="450.00,406.91 444.00,417.30 456.00,417.30" fill="#888888"/>
  <polygon points="498.00,406.91 492.00,417.30 504.00,417.30" fill="#888888"/>
  <polygon points="510.00,406.91 504.00,417.30 516.00,417.30" fill="#888888"/>
  <polygon points="522.00,406.91 516.00,417.30 528.00,417.30" fill="#888888"/>
  <polygon points="534.00,406.91 528.00,417.30 540.00,417.30" fill="#888888"/>
  <polygon points="72.00,417.30 66.00,427.69 78.00,427.69" fill="#888888"/>
  <polygon points="84.00,417.30 78.00,427.69 90.00,427.69" fill="#888888"/>
  <polygon points="96.00,417.30 90.00,427.69 102.00,427.69" fill="#888888"/>
  <polygon points="108.00,417.30 102.00,427.69 114.00,427.69" fill="#888888"/>
  <polygon points="120.00,417.30 114.00,427.69 126.00,427.69" fill="#888888"/>
  <polygon points="156.00,417.30 150.00,427.69 162.00,427.69" fill="#888888"/>
  <polygon points="168.00,417.30 162.00,427.69 174.00,427.69" fill="#888888"/>
  <polygon points="180.00,417.30 174.00,427.69 186.00,427.69" fill="#888888"/>
  <polygon points="192.00,417.30 186.00,427.69 198.00,427.69" fill="#888888"/>
  <polygon points="204.00,417.30 198.00,427.69 210.00,427.69" fill="#888888"/>
  <polygon points="240.00,417.30 234.00,427.69 246.00,427.69" fill="#888888"/>
  <polygon points="252.00,417.30 246.00,427.69 258.00,427.69" fill="#888888"/>
  <polygon points="264.00,417.30 258.00,427.69 270.00,427.69" fill="#888888"/>
  <polygon points="276.00,417.30 270.00,427.69 282.00,427.69" fill="#888888"/>
  <polygon points="288.00,417.30 282.00,427.69 294.00,427.69" fill="#888888"/>
  <polygon points="324.00,417.30 318.00,427.69 330.00,427.69" fill="#888888"/>
  <polygon points="336.00,417.30 330.00,427.69 342.00,427.69" fill="#888888"/>
  <polygon points="348.00,417.30 342.00,427.69 354.00,427.69" fill="#888888"/>
  <polygon points="360.00,417.30 354.00,427.69 366.00,427.69" fill="#888888"/>
  <polygon points="372.00,417.30 366.00,427.69 378.00,427.69" fill="#888888"/>
  <polygon points="408.00,417.30 402.00,427.69 414.00,427.69" fill="#888888"/>
  <polygon points="420.00,417.30 414.00,427.69 426.00,427.69" fill="#888888"/>
  <polygon points="432.00,417.30 426.00,427.69 438.00,427.69" fill="#888888"/>
  <polygon points="444.00,417.30 438.00,427.69 450.00,427.69" fill="#888888"/>
  <polygon points="456.00,417.30 450.00,427.69 462.00,427.69" fill="#888888"/>
  <polygon points="492.00,417.30 486.00,427.69 498.00,427.69" fill="#888888"/>
  <polygon points="504.00,417.30 498.00,427.69 510.00,427.69" fill="#888888"/>
  <polygon points="516.00,417.30 510.00,427.69 522.00,427.69" fill="#888888"/>
  <polygon points="528.00,417.30 522.00,427.69 534.00,427.69" fill="#888888"/>
  <polygon points="540.00,417.30 534.00,427.69 546.00,427.69" fill="#888888"/>
  <polygon points="66.00,427.69 60.00,438.08 72.00,438.08" fill="#888888"/>
  <polygon points="78.00,427.69 72.00,438.08 84.00,438.08" fill="#888888"/>
  <polygon points="90.00,427.69 84.00,438.08 96.00,438.08" fill="#888888"/>
  <polygon points="102.00,427.69 96.00,438.08 108.00,438.08" fill="#888888"/>
  <polygon points="114.00,427.69 108.00,438.08 120.00,438.08" fill="#888888"/>
  <polygon points="126.00,427.69 120.00,438.08 132.00,438.08" fill="#888888"/>
  <polygon points="150.00,427.69 144.00,438.08 156.00,438.08" fill="#888888"/>
  <polygon points="162.00,427.69 156.00,438.08 168.00,438.08" fill="#888888"/>
  <polygon points="174.00,427.69 168.00,438.08 180.00,438.08" fill="#888888"/>
  <polygon points="186.00,427.69 180.00,438.08 192.00,438.08" fill="#888888"/>
  <polygon points="198.00,427.69 192.00,438.08 204.00,438.08" fill="#888888"/>
  <polygon points="210.00,427.69 204.00,438.08 216.00,438.08" fill="#888888"/>
  <polygon points="234.00,427.69 228.00,438.08 240.00,438.08" fill="#888888"/>
  <polygon points="246.00,427.69 240.00,438.08 252.00,438.08" fill="#888888"/>
  <polygon points="258.00,427.69 252.00,438.08 264.00,438.08" fill="#888888"/>
  <polygon points="270.00,427.69 264.00,438.08 276.00,438.08" fill="#888888"/>
  <polygon points="282.00,427.69 276.00,438.08 288.00,438.08" fill="#888888"/>
  <polygon points="294.00,427.69 288.00,438.08 300.00,438.08" fill="#888888"/>
  <polygon points="318.00,427.69 312.00,438.08 324.00,438.08" fill="#888888"/>
  <polygon points="330.00,427.69 324.00,438.08 336.00,438.08" fill="#888888"/>
  <polygon points="342.00,427.69 336.00,438.08 348.00,438.08" fill="#888888"/>
  <polygon points="354.00,427.69 348.00,438.08 360.00,438.08" fill="#888888"/>
  <polygon points="366.00,427.69 360.00,438.08 372.00,438.08" fill="#888888"/>
  <polygon points="378.00,427.69 372.00,438.08 384.00,438.08" fill="#888888"/>
  <polygon points="402.00,427.69 396.00,438.08 408.00,438.08" fill="#888888"/>
  <polygon points="414.00,427.69 408.00,438.08 420.00,438.08" fill="#888888"/>
  <polygon points="426.00,427.69 420.00,438.08 432.00,438.08" fill="#888888"/>
  <polygon points="438.00,427.69 432.00,438.08 444.00,438.08" fill="#888888"/>
  <polygon points="450.00,427.69 444.00,438.08 456.00,438.08" fill="#888888"/>
  <polygon points="462.00,427.69 456.00,438.08 468.00,438.08" fill="#888888"/>
  <polygon points="486.00,427.69 480.00,438.08 492.00,438.08" fill="#888888"/>
  <polygon points="498.00,427.69 492.00,438.08 504.00,438.08" fill="#888888"/>
  <polygon points="510.00,427.69 504.00,438.08 516.00,438.08" fill="#888888"/>
  <polygon points="522.00,427.69 516.00,438.08 528.00,438.08" fill="#888888"/>
  <polygon points="534.00,427.69 528.00,438.08 540.00,438.08" fill="#888888"/>
  <polygon points="546.00,427.69 540.00,438.08 552.00,438.08" fill="#888888"/>
  <polygon points="60.00,438.08 54.00,448.48 66.00,448.48" fill="#888888"/>
  <polygon points="72.00,438.08 66.00,448.48 78.00,448.48" fill="#888888"/>
  <polygon points="84.00,438.08 78.00,448.48 90.00,448.48" fill="#888888"/>
  <polygon points="96.00,438.08 90.00,448.48 102.00,448.48" fill="#888888"/>
  <polygon points="108.00,438.08 102.00,448.48 114.00,448.48" fill="#888888"/>
  <polygon points="120.00,438.08 114.00,448.48 126.00,448.48" fill="#888888"/>
  <polygon points="132.00,438.08 126.00,448.48 138.00,448.48" fill="#888888"/>
  <polygon points="144.00,438.08 138.00,448.48 150.00,448.48" fill="#888888"/>
  <polygon points="156.00,438.08 150.00,448.48 162.00,448.48" fill="#888888"/>
  <polygon points="168.00,438.08 162.00,448.48 174.00,448.48" fill="#888888"/>
  <polygon points="180.00,438.08 174.00,448.48 186.00,448.48" fill="#888888"/>
  <polygon points="192.00,438.08 186.00,448.48 198.00,448.48" fill="#888888"/>
  <polygon points="204.00,438.08 198.00,448.48 210.00,448.48" fill="#888888"/>
  <polygon points="216.00,438.08 210.00,448.48 222.00,448.48" fill="#888888"/>
  <polygon points="228.00,438.08 222.00,448.48 234.00,448.48" fill="#888888"/>
  <polygon points="240.00,438.08 234.00,448.48 246.00,448.48" fill="#888888"/>
  <polygon points="252.00,438.08 246.00,448.48 258.00,448.48" fill="#888888"/>
  <polygon points="264.00,438.08 258.00,448.48 270.00,448.48" fill="#888888"/>
  <polygon points="276.00,438.08 270.00,448.48 282.00,448.48" fill="#888888"/>
  <polygon points="288.00,438.08 282.00,448.48 294.00,448.48" fill="#888888"/>
  <polygon points="300.00,438.08 294.00,448.48 306.00,448.48" fill="#888888"/>
  <polygon points="312.00,438.08 306.00,448.48 318.00,448.48" fill="#888888"/>
  <polygon points="324.00,438.08 318.00,448.48 330.00,448.48" fill="#888888"/>
  <polygon points="336.00,438.08 330.00,448.48 342.00,448.48" fill="#888888"/>
  <polygon points="348.00,438.08 342.00,448.48 354.00,448.48" fill="#888888"/>
  <polygon points="360.00,438.08 354.00,448.48 366.00,448.48" fill="#888888"/>
  <polygon points="372.00,438.08 366.00,448.48 378.00,448.48" fill="#888888"/>
  <polygon points="384.00,438.08 378.00,448.48 390.00,448.48" fill="#888888"/>
  <polygon points="396.00,438.08 390.00,448.48 402.00,448.48" fill="#888888"/>
  <polygon points="408.00,438.08 402.00,448.48 414.00,448.48" fill="#888888"/>
  <polygon points="420.00,438.08 414.00,448.48 426.00,448.48" fill="#888888"/>
  <polygon points="432.00,438.08 426.00,448.48 438.00,448.48" fill="#888888"/>
  <polygon points="444.00,438.08 438.00,448.48 450.00,448.48" fill="#888888"/>
  <polygon points="456.00,438.08 450.00,448.48 462.00,448.48" fill="#888888"/>
  <polygon points="468.00,438.08 462.00,448.48 474.00,448.48" fill="#888888"/>
  <polygon points="480.00,438.08 474.00,448.48 486.00,448.48" fill="#888888"/>
  <polygon points="492.00,438.08 486.00,448.48 498.00,448.48" fill="#888888"/>
  <polygon points="504.00,438.08 498.00,448.48 510.00,448.48" fill="#888888"/>
  <polygon points="516.00,438.08 510.00,448.48 522.00,448.48" fill="#888888"/>
  <polygon points="528.00,438.08 522.00,448.48 534.00,448.48" fill="#888888"/>
  <polygon points="540.00,438.08 534.00,448.48 546.00,448.48" fill="#888888"/>
  <polygon points="552.00,438.08 546.00,448.48 558.00,448.48" fill="#888888"/>
  <polygon points="54.00,448.48 48.00,458.87 60.00,458.87" fill="#888888"/>
  <polygon points="138.00,448.48 132.00,458.87 144.00,458.87" fill="#888888"/>
  <polygon points="222.00,448.48 216.00,458.87 228.00,458.87" fill="#888888"/>
  <polygon points="306.00,448.48 300.00,458.87 312.00,458.87" fill="#888888"/>
  <polygon points="390.00,448.48 384.00,458.87 396.00,458.87" fill="#888888"/>
  <polygon points="474.00,448.48 468.00,458.87 480.00,458.87" fill="#888888"/>
  <polygon points="558.00,448.48 552.00,458.87 564.00,458.87" fill="#888888"/>
  <polygon points="48.00,458.87 42.00,469.26 54.00,469.26" fill="#888888"/>
  <polygon points="60.00,458.87 54.00,469.26 66.00,469.26" fill="#888888"/>
  <polygon points="132.00,458.87 126.00,469.26 138.00,469.26" fill="#888888"/>
  <polygon points="144.00,458.87 138.00,469.26 150.00,469.26" fill="#888888"/>
  <polygon points="216.00,458.87 210.00,469.26 222.00,469.26" fill="#888888"/>
  <polygon points="228.00,458.87 222.00,469.26 234.00,469.26" fill="#888888"/>
  <polygon points="300.00,458.87 294.00,469.26 306.00,469.26" fill="#888888"/>
  <polygon points="312.00,458.87 306.00,469.26 318.00,469.26" fill="#888888"/>
  <polygon points="384.00,458.87 378.00,469.26 390.00,469.26" fill="#888888"/>
  <polygon points="396.00,458.87 390.00,469.26 402.00,469.26" fill="#888888"/>
  <polygon points="468.00,458.87 462.00,469.26 474.00,469.26" fill="#888888"/>
  <polygon points="480.00,458.87 474.00,469.26 486.00,469.26" fill="#888888"/>
  <polygon points="552.00,458.87 546.00,469.26 558.00,469.26" fill="#888888"/>
  <polygon points="564.00,458.87 558.00,469.26 570.00,469.26" fill="#888888"/>
  <polygon points="42.00,469.26 36.00,479.65 48.00,479.65" fill="#888888"/>
  <polygon points="54.00,469.26 48.00,479.65 60.00,479.65" fill="#888888"/>
  <polygon points="66.00,469.26 60.00,479.65 72.00,479.65" fill="#888888"/>
  <polygon points="126.00,469.26 120.00,479.65 132.00,479.65" fill="#888888"/>
  <polygon points="138.00,469.26 132.00,479.65 144.00,479.65" fill="#888888"/>
  <polygon points="150.00,469.26 144.00,479.65 156.00,479.65" fill="#888888"/>
  <polygon points="210.00,469.26 204.00,479.65 216.00,479.65" fill="#888888"/>
  <polygon points="222.00,469.26 216.00,479.65 228.00,479.65" fill="#888888"/>
  <polygon points="234.00,469.26 228.00,479.65 240.00,479.65" fill="#888888"/>
  <polygon points="294.00,469.26 288.00,479.65 300.00,479.65" fill="#888888"/>
  <polygon points="306.00,469.26 300.00,479.65 312.00,479.65" fill="#888888"/>
  <polygon points="318.00,469.26 312.00,479.65 324.00,479.65" fill="#888888"/>
  <polygon points="378.00,469.26 372.00,479.65 384.00,479.65" fill="#888888"/>
  <polygon points="390.00,469.26 384.00,479.65 396.00,479.65" fill="#888888"/>
  <polygon points="402.00,469.26 396.00,479.65 408.00,479.65" fill="#888888"/>
  <polygon points="462.00,469.26 456.00,479.65 468.00,479.65" fill="#888888"/>
  <polygon points="474.00,469.26 468.00,479.65 480.00,479.65" fill="#888888"/>
  <polygon points="486.00,469.26 480.00,479.65 492.00,479.65" fill="#888888"/>
  <polygon points="546.00,469.26 540.00,479.65 552.00,479.65" fill="#888888"/>
  <polygon points="558.00,469.26 552.00,479.65 564.00,479.65" fill="#888888"/>
  <polygon points="570.00,469.26 564.00,479.65 576.00,479.65" fill="#888888"/>
  <polygon points="36.00,479.65 30.00,490.05 42.00,490.05" fill="#888888"/>
  <polygon points="48.00,479.65 42.00,490.05 54.00,490.05" fill="#888888"/>
  <polygon points="60.00,479.65 54.00,490.05 66.00,490.05" fill="#888888"/>
  <polygon points="72.00,479.65 66.00,490.05 78.00,490.05" fill="#888888"/>
  <polygon points="120.00,479.65 114.00,490.05 126.00,490.05" fill="#888888"/>
  <polygon points="132.00,479.65 126.00,490.05 138.00,490.05" fill="#888888"/>
  <polygon points="144.00,479.65 138.00,490.05 150.00,490.05" fill="#888888"/>
  <polygon points="156.00,479.65 150.00,490.05 162.00,490.05" fill="#888888"/>
  <polygon points="204.00,479.65 198.00,490.05 210.00,490.05" fill="#888888"/>
  <polygon points="216.00,479.65 210.00,490.05 222.00,490.05" fill="#888888"/>
  <polygon points="228.00,479.65 222.00,490.05 234.00,490.05" fill="#888888"/>
  <polygon points="240.00,479.65 234.00,490.05 246.00,490.05" fill="#888888"/>
  <polygon points="288.00,479.65 282.00,490.05 294.00,490.05" fill="#888888"/>
  <polygon points="300.00,479.65 294.00,490.05 306.00,490.05" fill="#888888"/>
  <polygon points="312.00,479.65 306.00,490.05 318.00,490.05" fill="#888888"/>
  <polygon points="324.00,479.65 318.00,490.05 330.00,490.05" fill="#888888"/>
  <polygon points="372.00,479.65 366.00,490.05 378.00,490.05" fill="#888888"/>
  <polygon points="384.00,479.65 378.00,490.05 390.00,490.05" fill="#888888"/>
  <polygon points="396.00,479.65 390.00,490.05 402.00,490.05" fill="#888888"/>
  <polygon points="408.00,479.65 402.00,490.05 414.00,490.05" fill="#888888"/>
  <polygon points="456.00,479.65 450.00,490.05 462.00,490.05" fill="#888888"/>
  <polygon points="468.00,479.65 462.00,490.05 474.00,490.05" fill="#888888"/>
  <polygon points="480.00,479.65 474.00,490.05 486.00,490.05" fill="#888888"/>
  <polygon points="492.00,479.65 486.00,490.05 498.00,490.05" fill="#888888"/>
  <polygon points="540.00,479.65 534.00,490.05 546.00,490.05" fill="#888888"/>
  <polygon points="552.00,479.65 546.00,490.05 558.00,490.05" fill="#888888"/>
  <polygon points="564.00,479.65 558.00,490.05 570.00,490.05" fill="#888888"/>
  <polygon points="576.00,479.65 570.00,490.05 582.00,490.05" fill="#888888"/>
  <polygon points="30.00,490.05 24.00,500.44 36.00,500.44" fill="#888888"/>
  <polygon points="42.00,490.05 36.00,500.44 48.00,500.44" fill="#888888"/>
  <polygon points="54.00,490.05 48.00,500.44 60.00,500.44" fill="#888888"/>
  <polygon points="66.00,490.05 60.00,500.44 72.00,500.44" fill="#888888"/>
  <polygon points="78.00,490.05 72.00,500.44 84.00,500.44" fill="#888888"/>
  <polygon points="114.00,490.05 108.00,500.44 120.00,500.44" fill="#888888"/>
  <polygon points="126.00,490.05 120.00,500.44 132.00,500.44" fill="#888888"/>
  <polygon points="138.00,490.05 132.00,500.44 144.00,500.44" fill="#888888"/>
  <polygon points="150.00,490.05 144.00,500.44 156.00,500.44" fill="#888888"/>
  <polygon points="162.00,490.05 156.00,500.44 168.00,500.44" fill="#888888"/>
  <polygon points="198.00,490.05 192.00,500.44 204.00,500.44" fill="#888888"/>
  <polygon points="210.00,490.05 204.00,500.44 216.00,500.44" fill="#888888"/>
  <polygon points="222.00,490.05 216.00,500.44 228.00,500.44" fill="#888888"/>
  <polygon points="234.00,490.05 228.00,500.44 240.00,500.44" fill="#888888"/>
  <polygon points="246.00,490.05 240.00,500.44 252.00,500.44" fill="#888888"/>
  <polygon points="282.00,490.05 276.00,500.44 288.00,500.44" fill="#888888"/>
  <polygon points="294.00,490.05 288.00,500.44 300.00,500.44" fill="#888888"/>
  <polygon points="306.00,490.05 300.00,500.44 312.00,500.44" fill="#888888"/>
  <polygon points="318.00,490.05 312.00,500.44 324.00,500.44" fill="#888888"/>
  <polygon points="330.00,490.05 324.00,500.44 336.00,500.44" fill="#888888"/>
  <polygon points="366.00,490.05 360.00,500.44 372.00,500.44" fill="#888888"/>
  <polygon points="378.00,490.05 372.00,500.44 384.00,500.44" fill="#888888"/>
  <polygon points="390.00,490.05 384.00,500.44 396.00,500.44" fill="#888888"/>
  <polygon points="402.00,490.05 396.00,500.44 408.00,500.44" fill="#888888"/>
  <polygon points="414.00,490.05 408.00,500.44 420.00,500.44" fill="#888888"/>
  <polygon points="450.00,490.05 444.00,500.44 456.00,500.44" fill="#888888"/>
  <polygon points="462.00,490.05 456.00,500.44 468.00,500.44" fill="#888888"/>
  <polygon points="474.00,490.05 468.00,500.44 480.00,500.44" fill="#888888"/>
  <polygon points="486.00,490.05 480.00,500.44 492.00,500.44" fill="#888888"/>
  <polygon points="498.00,490.05 492.00,500.44 504.00,500.44" fill="#888888"/>
  <polygon points="534.00,490.05 528.00,500.44 540.00,500.44" fill="#888888"/>
  <polygon points="546.00,490.05 540.00,500.44 552.00,500.44" fill="#888888"/>
  <polygon points="558.00,490.05 552.00,500.44 564.00,500.44" fill="#888888"/>
  <polygon points="570.00,490.05 564.00,500.44 576.00,500.44" fill="#888888"/>
  <polygon points="582.00,490.05 576.00,500.44 588.00,500.44" fill="#888888"/>
  <polygon points="24.00,500.44 18.00,510.83 30.00,510.83" fill="#888888"/>
  <polygon points="36.00,500.44 30.00,510.83 42.00,510.83" fill="#888888"/>
  <polygon points="48.00,500.44 42.00,510.83 54.00,510.83" fill="#888888"/>
  <polygon points="60.00,500.44 54.00,510.83 66.00,510.83" fill="#888888"/>
  <polygon points="72.00,500.44 66.00,510.83 78.00,510.83" fill="#888888"/>
  <polygon points="84.00,500.44 78.00,510.83 90.00,510.83" fill="#888888"/>
  <polygon points="108.00,500.44 102.00,510.83 114.00,510.83" fill="#888888"/>
  <polygon points="120.00,500.44 114.00,510.83 126.00,510.83" fill="#888888"/>
  <polygon points="132.00,500.44 126.00,510.83 138.00,510.83" fill="#888888"/>
  <polygon points="144.00,500.44 138.00,510.83 150.00,510.83" fill="#888888"/>
  <polygon points="156.00,500.44 150.00,510.83 162.00,510.83" fill="#888888"/>
  <polygon points="168.00,500.44 162.00,510.83 174.00,510.83" fill="#888888"/>
  <polygon points="192.00,500.44 186.00,510.83 198.00,510.83" fill="#888888"/>
  <polygon points="204.00,500.44 198.00,510.83 210.00,510.83" fill="#888888"/>
  <polygon points="216.00,500.44 210.00,510.83 222.00,510.83" fill="#888888"/>
  <polygon points="228.00,500.44 222.00,510.83 234.00,510.83" fill="#888888"/>
  <polygon points="240.00,500.44 234.00,510.83 246.00,510.83" fill="#888888"/>
  <polygon points="252.00,500.44 246.00,510.83 258.00,510.83" fill="#888888"/>
  <polygon points="276.00,500.44 270.00,510.83 282.00,510.83" fill="#888888"/>
  <polygon points="288.00,500.44 282.00,510.83 294.00,510.83" fill="#888888"/>
  <polygon points="300.00,500.44 294.00,510.83 306.00,510.83" fill="#888888"/>
  <polygon points="312.00,500.44 306.00,510.83 318.00,510.83" fill="#888888"/>
  <polygon points="324.00,500.44 318.00,510.83 330.00,510.83" fill="#888888"/>
  <polygon points="336.00,500.44 330.00,510.83 342.00,510.83" fill="#888888"/>
  <polygon points="360.00,500.44 354.00,510.83 366.00,510.83" fill="#888888"/>
  <polygon points="372.00,500.44 366.00,510.83 378.00,510.83" fill="#888888"/>
  <polygon points="384.00,500.44 378.00,510.83 390.00,510.83" fill="#888888"/>
  <polygon points="396.00,500.44 390.00,510.83 402.00,510.83" fill="#888888"/>
  <polygon points="408.00,500.44 402.00,510.83 414.00,510.83" fill="#888888"/>
  <polygon points="420.00,500.44 414.00,510.83 426.00,510.83" fill="#888888"/>
  <polygon points="444.00,500.44 438.00,510.83 450.00,510.83" fill="#888888"/>
  <polygon points="456.00,500.44 450.00,510.83 462.00,510.83" fill="#888888"/>
  <polygon points="468.00,500.44 462.00,510.83 474.00,510.83" fill="#888888"/>
  <polygon points="480.00,500.44 474.00,510.83 486.00,510.83" fill="#888888"/>
  <polygon points="492.00,500.44 486.00,510.83 498.00,510.83" fill="#888888"/>
  <polygon points="504.00,500.44 498.00,510.83 510.00,510.83" fill="#888888"/>
  <polygon points="528.00,500.44 522.00,510.83 534.00,510.83" fill="#888888"/>
  <polygon points="540.00,500.44 534.00,510.83 546.00,510.83" fill="#888888"/>
  <polygon points="552.00,500.44 546.00,510.83 558.00,510.83" fill="#888888"/>
  <polygon points="564.00,500.44 558.00,510.83 570.00,510.83" fill="#888888"/>
  <polygon points="576.00,500.44 570.00,510.83 582.00,510.83" fill="#888888"/>
  <polygon points="588.00,500.44 582.00,510.83 594.00,510.83" fill="#888888"/>
  <polygon points="18.00,510.83 12.00,521.22 24.00,521.22" fill="#888888"/>
  <polygon points="30.00,510.83 24.00,521.22 36.00,521.22" fill="#888888"/>
  <polygon points="42.00,510.83 36.00,521.22 48.00,521.22" fill="#888888"/>
  <polygon points="54.00,510.83 48.00,521.22 60.00,521.22" fill="#888888"/>
  <polygon points="66.00,510.83 60.00,521.22 72.00,521.22" fill="#888888"/>
  <polygon points="78.00,510.83 72.00,521.22 84.00,521.22" fill="#888888"/>
  <polygon points="90.00,510.83 84.00,521.22 96.00,521.22" fill="#888888"/>
  <polygon points="102.00,510.83 96.00,521.22 108.00,521.22" fill="#888888"/>
  <polygon points="114.00,510.83 108.00,521.22 120.00,521.22" fill="#888888"/>
  <polygon points="126.00,510.83 120.00,521.22 132.00,521.22" fill="#888888"/>
  <polygon points="138.00,510.83 132.00,521.22 144.00,521.22" fill="#888888"/>
  <polygon points="150.00,510.83 144.00,521.22 156.00,521.22" fill="#888888"/>
  <polygon points="162.00,510.83 156.00,521.22 168.00,521.22" fill="#888888"/>
  <polygon points="174.00,510.83 168.00,521.22 180.00,521.22" fill="#888888"/>
  <polygon points="186.00,510.83 180.00,521.22 192.00,521.22" fill="#888888"/>
  <polygon points="198.00,510.83 192.00,521.22 204.00,521.22" fill="#888888"/>
  <polygon points="210.00,510.83 204.00,521.22 216.00,521.22" fill="#888888"/>
  <polygon points="222.00,510.83 216.00,521.22 228.00,521.22" fill="#888888"/>
  <polygon points="234.00,510.83 228.00,521.22 240.00,521.22" fill="#888888"/>
  <polygon points="246.00,510.83 240.00,521.22 252.00,521.22" fill="#888888"/>
  <polygon points="258.00,510.83 252.00,521.22 264.00,521.22" fill="#888888"/>
  <polygon points="270.00,510.83 264.00,521.22 276.00,521.22" fill="#888888"/>
  <polygon points="282.00,510.83 276.00,521.22 288.00,521.22" fill="#888888"/>
  <polygon points="294.00,510.83 288.00,521.22 300.00,521.22" fill="#888888"/>
  <polygon points="306.00,510.83 300.00,521.22 312.00,521.22" fill="#888888"/>
  <polygon points="318.00,510.83 312.00,521.22 324.00,521.22" fill="#888888"/>
  <polygon points="330.00,510.83 324.00,521.22 336.00,521.22" fill="#888888"/>
  <polygon points="342.00,510.83 336.00,521.22 348.00,521.22" fill="#888888"/>
  <polygon points="354.00,510.83 348.00,521.22 360.00,521.22" fill="#888888"/>
  <polygon points="366.00,510.83 360.00,521.22 372.00,521.22" fill="#888888"/>
  <polygon points="378.00,510.83 372.00,521.22 384.00,521.22" fill="#888888"/>
  <polygon points="390.00,510.83 384.00,521.22 396.00,521.22" fill="#888888"/>
  <polygon points="402.00,510.83 396.00,521.22 408.00,521.22" fill="#888888"/>
  <polygon points="414.00,510.83 408.00,521.22 420.00,521.22" fill="#888888"/>
  <polygon points="426.00,510.83 420.00,521.22 432.00,521.22" fill="#888888"/>
  <polygon points="438.00,510.83 432.00,521.22 444.00,521.22" fill="#888888"/>
  <polygon points="450.00,510.83 444.00,521.22 456.00,521.22" fill="#888888"/>
  <polygon points="462.00,510.83 456.00,521.22 468.00,521.22" fill="#888888"/>
  <polygon points="474.00,510.83 468.00,521.22 480.00,521.22" fill="#888888"/>
  <polygon points="486.00,510.83 480.00,521.22 492.00,521.22" fill="#888888"/>
  <polygon points="498.00,510.83 492.00,521.22 504.00,521.22" fill="#888888"/>
  <polygon points="510.00,510.83 504.00,521.22 516.00,521.22" fill="#888888"/>
  <polygon points="522.00,510.83 516.00,521.22 528.00,521.22" fill="#888888"/>
  <polygon points="534.00,510.83 528.00,521.22 540.00,521.22" fill="#888888"/>
  <polygon points="546.00,510.83 540.00,521.22 552.00,521.22" fill="#888888"/>
  <polygon points="558.00,510.83 552.00,521.22 564.00,521.22" fill="#888888"/>
  <polygon points="570.00,510.83 564.00,521.22 576.00,521.22" fill="#888888"/>
  <polygon points="582.00,510.83 576.00,521.22 588.00,521.22" fill="#888888"/>
  <polygon points="594.00,510.83 588.00,521.22 600.00,521.22" fill="#888888"/>
  <line x1="66.00" y1="417.30" x2="546.00" y2="417.30" stroke="#ff4444" stroke-width="1.8"/>
  <line x1="414.00" y1="178.28" x2="216.00" y2="521.22" stroke="#44dd44" stroke-width="1.8"/>
  <text x="50.00" y="417.30" fill="#ff4444" font-size="15" font-family="serif" font-style="italic" text-anchor="middle" dominant-baseline="middle">N</text>
  <text x="421.00" y="174.28" fill="#44dd44" font-size="15" font-family="serif" font-style="italic" dominant-baseline="auto">R</text>
</svg>